{
  "accessors": [
    {
      "bufferView": 2,
      "componentType": 5126,
      "count": 13256,
      "max": [
        1.1359909772872925,
        0.8436650037765503,
        3.873065948486328
      ],
      "min": [
        -1.1090830564498901,
        -1.4377750158309937,
        1.4590610265731812
      ],
      "type": "VEC3"
    },
    {
      "bufferView": 2,
      "byteOffset": 159072,
      "componentType": 5126,
      "count": 13256,
      "max": [
        0.9996367692947388,
        0.999971866607666,
        0.9998114705085754
      ],
      "min": [
        -0.9996367692947388,
        -0.9999819993972778,
        -0.9999663829803467
      ],
      "type": "VEC3"
    },
    {
      "bufferView": 1,
      "componentType": 5126,
      "count": 13256,
      "max": [
        0.911109983921051,
        0.9997100234031677
      ],
      "min": [
        0.0002899999963119626,
        0.0002899999963119626
      ],
      "type": "VEC2"
    },
    {
      "bufferView": 0,
      "componentType": 5125,
      "count": 72552,
      "type": "SCALAR"
    },
    {
      "bufferView": 2,
      "byteOffset": 318144,
      "componentType": 5126,
      "count": 805,
      "max": [
        0.10621300339698792,
        0.9088079929351807,
        1.9319490194320679
      ],
      "min": [
        -0.2558940052986145,
        -0.1809380054473877,
        0.14681999385356903
      ],
      "type": "VEC3"
    },
    {
      "bufferView": 2,
      "byteOffset": 327804,
      "componentType": 5126,
      "count": 805,
      "max": [
        0.9997134804725647,
        0.9977836608886719,
        0.989841878414154
      ],
      "min": [
        -0.9994440078735352,
        -0.9963927865028381,
        -0.9884980916976929
      ],
      "type": "VEC3"
    },
    {
      "bufferView": 1,
      "byteOffset": 106048,
      "componentType": 5126,
      "count": 805,
      "max": [
        0.3564150035381317,
        0.9999399781227112
      ],
      "min": [
        5.999999848427251e-05,
        5.999999848427251e-05
      ],
      "type": "VEC2"
    },
    {
      "bufferView": 0,
      "byteOffset": 290208,
      "componentType": 5125,
      "count": 4560,
      "type": "SCALAR"
    },
    {
      "bufferView": 2,
      "byteOffset": 337464,
      "componentType": 5126,
      "count": 228,
      "max": [
        0.6175000071525574,
        0.5914999842643738,
        0.5034999847412109
      ],
      "min": [
        -0.6175000071525574,
        -0.5914999842643738,
        -0.5034999847412109
      ],
      "type": "VEC3"
    },
    {
      "bufferView": 2,
      "byteOffset": 340200,
      "componentType": 5126,
      "count": 228,
      "max": [
        0.9265087842941284,
        0.9272611141204834,
        1.0
      ],
      "min": [
        -0.9265087842941284,
        -0.9272611141204834,
        -1.0
      ],
      "type": "VEC3"
    },
    {
      "bufferView": 1,
      "byteOffset": 112488,
      "componentType": 5126,
      "count": 228,
      "max": [
        0.9998779892921448,
        0.6514040231704712
      ],
      "min": [
        0.00012199999764561653,
        0.00012199999764561653
      ],
      "type": "VEC2"
    },
    {
      "bufferView": 0,
      "byteOffset": 308448,
      "componentType": 5125,
      "count": 1116,
      "type": "SCALAR"
    }
  ],
  "asset": {
    "extras": {
      "author": "jaledkarau (https://sketchfab.com/jaledkarau)",
      "license": "CC-BY-4.0 (http://creativecommons.org/licenses/by/4.0/)",
      "source": "https://sketchfab.com/3d-models/planta-carnivora-48c37e0a96f64aa2b5cf6138f69ef738",
      "title": "Planta carnivora"
    },
    "generator": "Sketchfab-16.15.0",
    "version": "2.0"
  },
  "bufferViews": [
    {
      "buffer": 0,
      "byteLength": 312912,
      "name": "floatBufferViews",
      "target": 34963
    },
    {
      "buffer": 0,
      "byteLength": 114312,
      "byteOffset": 312912,
      "byteStride": 8,
      "name": "floatBufferViews",
      "target": 34962
    },
    {
      "buffer": 0,
      "byteLength": 342936,
      "byteOffset": 427224,
      "byteStride": 12,
      "name": "floatBufferViews",
      "target": 34962
    }
  ],
  "buffers": [
    {
      "byteLength": 770160,
      "uri": "scene.bin"
    }
  ],
  "images": [
    {
      "uri": "textures/LP_CABEZA_CARNVORA.002_baseColor.png"
    },
    {
      "uri": "textures/LP_TALLO.001_baseColor.png"
    },
    {
      "uri": "textures/LP_TUBERIA.001_baseColor.png"
    }
  ],
  "materials": [
    {
      "doubleSided": true,
      "name": "LP_CABEZA_CARNVORA.002",
      "pbrMetallicRoughness": {
        "baseColorTexture": {
          "index": 0
        },
        "metallicFactor": 0.0,
        "roughnessFactor": 0.6
      }
    },
    {
      "doubleSided": true,
      "name": "LP_TALLO.001",
      "pbrMetallicRoughness": {
        "baseColorTexture": {
          "index": 1
        },
        "metallicFactor": 0.0,
        "roughnessFactor": 0.6
      }
    },
    {
      "doubleSided": true,
      "name": "LP_TUBERIA.001",
      "pbrMetallicRoughness": {
        "baseColorTexture": {
          "index": 2
        },
        "metallicFactor": 0.0,
        "roughnessFactor": 0.6
      }
    }
  ],
  "meshes": [
    {
      "name": "Object_0",
      "primitives": [
        {
          "attributes": {
            "NORMAL": 1,
            "POSITION": 0,
            "TEXCOORD_0": 2
          },
          "indices": 3,
          "material": 0,
          "mode": 4
        }
      ]
    },
    {
      "name": "Object_1",
      "primitives": [
        {
          "attributes": {
            "NORMAL": 5,
            "POSITION": 4,
            "TEXCOORD_0": 6
          },
          "indices": 7,
          "material": 1,
          "mode": 4
        }
      ]
    },
    {
      "name": "Object_2",
      "primitives": [
        {
          "attributes": {
            "NORMAL": 9,
            "POSITION": 8,
            "TEXCOORD_0": 10
          },
          "indices": 11,
          "material": 2,
          "mode": 4
        }
      ]
    }
  ],
  "nodes": [
    {
      "children": [
        1
      ],
      "matrix": [
        1.0,
        0.0,
        0.0,
        0.0,
        0.0,
        2.220446049250313e-16,
        -1.0,
        0.0,
        0.0,
        1.0,
        2.220446049250313e-16,
        0.0,
        0.0,
        0.0,
        0.0,
        1.0
      ],
      "name": "Sketchfab_model"
    },
    {
      "children": [
        2,
        3,
        4
      ],
      "name": "TP2 TEXTURIZADO_Jaled Carauni.obj.cleaner.materialmerger.gles"
    },
    {
      "mesh": 0,
      "name": "Object_2"
    },
    {
      "mesh": 1,
      "name": "Object_3"
    },
    {
      "mesh": 2,
      "name": "Object_4"
    }
  ],
  "samplers": [
    {
      "magFilter": 9729,
      "minFilter": 9987,
      "wrapS": 10497,
      "wrapT": 10497
    }
  ],
  "scene": 0,
  "scenes": [
    {
      "name": "Sketchfab_Scene",
      "nodes": [
        0
      ]
    }
  ],
  "textures": [
    {
      "sampler": 0,
      "source": 0
    },
    {
      "sampler": 0,
      "source": 1
    },
    {
      "sampler": 0,
      "source": 2
    }
  ]
}
